<svg xmlns="http://www.w3.org/2000/svg" viewBox="207.2 196.2 631.7 631.7" width="128" height="128">
  <defs>
    <style>.line{fill:none;stroke:#8a2aa2;stroke-width:44;stroke-linecap:round;stroke-linejoin:round}.thin{fill:none;stroke:#8a2aa2;stroke-width:28;stroke-linecap:round;stroke-linejoin:round}.fill{fill:#8a2aa2}.faint{opacity:0.55}@media (prefers-color-scheme:dark){.line{fill:none;stroke:#fff;stroke-width:44;stroke-linecap:round;stroke-linejoin:round}.thin{fill:none;stroke:#fff;stroke-width:28;stroke-linecap:round;stroke-linejoin:round}.fill{fill:#fff}.faint{opacity:0.55}}.cut{display:none}</style>
    <mask id="cuts" maskUnits="userSpaceOnUse" x="0" y="0" width="1024" height="1024">
      <rect width="1024" height="1024" fill="#fff"/><rect class="cut" x="342" y="300" width="14" height="424" rx="7" style="display:inline;fill:#000"/><rect class="cut" x="373" y="300" width="14" height="424" rx="7" style="display:inline;fill:#000"/><rect class="cut" x="404" y="300" width="14" height="424" rx="7" style="display:inline;fill:#000"/>
    </mask>
  </defs>
  <g mask="url(#cuts)"><g transform="translate(-22 0)">
<rect class="fill" x="322" y="264" width="116" height="496"/>
<rect class="fill" x="270" y="230" width="220" height="36" rx="8"/>
<rect class="fill" x="270" y="758" width="220" height="36" rx="8"/>
<rect class="cut" x="342" y="300" width="14" height="424" rx="7"/>
<rect class="cut" x="373" y="300" width="14" height="424" rx="7"/>
<rect class="cut" x="404" y="300" width="14" height="424" rx="7"/>
<path class="thin" d="M438 574 L712 250"/>
<rect class="fill" x="626" y="230" width="164" height="32" rx="8"/>
<path class="fill" d="M500 486 L588 412 L790 764 H660 Z"/>
<rect class="fill" x="610" y="758" width="210" height="36" rx="8"/>
</g>
</g>
</svg>
